<?xml version="1.0" encoding="utf-8"?>
<svg version="1.1" id="Calque_1" xmlns="http://www.w3.org/2000/svg" xmlns:xlink="http://www.w3.org/1999/xlink" x="0px" y="0px"
	 viewBox="0 0 200 200" style="enable-background:new 0 0 200 200;" xml:space="preserve">
<style type="text/css">
	.st0{fill:#37A084;}
	.st1{fill:#FFFFFF;}
</style>
<circle class="st0" cx="100" cy="100" r="100"/>
<path class="st1" d="M53,117.6c0,4,3.2,7.2,7.2,7.2c3.8,0,6.9-3,7.2-6.7h0V99.6l0,0C67.3,86,56.3,75,42.6,75
	c-13.7,0-24.8,11.1-24.8,24.8c0,13.7,11.1,24.8,24.8,24.8l0-0.1c3.8-0.1,6.9-3.2,6.9-7.1c0-3.9-3.1-7-7-7.1l0,0c0,0,0,0,0,0
	c-5.8,0-10.5-4.7-10.5-10.5s4.7-10.5,10.5-10.5c5.8,0,10.5,4.6,10.5,10.4L53,117.6z M64.3,99.6"/>
<path class="st1" d="M89.7,62.2c0-4-3.2-7.2-7.2-7.2c-3.8,0-6.9,3-7.2,6.7h0v38.5l0,0c0.1,13.6,11.2,24.6,24.8,24.6
	c13.7,0,24.8-11.1,24.8-24.8c0-13.7-11.1-24.8-24.8-24.8l0,0.1c-3.8,0.1-6.9,3.2-6.9,7.1c0,3.9,3.1,7,7,7.1l0,0c0,0,0,0,0,0
	c5.8,0,10.5,4.7,10.5,10.5c0,5.8-4.7,10.5-10.5,10.5c-5.8,0-10.5-4.6-10.5-10.4L89.7,62.2z M78.3,100.2"/>
<path class="st1" d="M147,100c0.1-5.8,4.7-10.4,10.5-10.4c5.8,0,10.5,4.7,10.5,10.5s-4.7,10.5-10.5,10.5c0,0,0,0,0,0l0,0
	c-3.9,0.1-7,3.2-7,7.1c0,3.9,3.1,7,6.9,7.1l0,0.1c13.7,0,24.8-11.1,24.8-24.8c0-13.7-11.1-24.8-24.8-24.8c-13.6,0-24.7,11-24.8,24.6
	l0,0v38.5h0c0.3,3.8,3.4,6.7,7.2,6.7c4,0,7.2-3.2,7.2-7.2L147,100z M135.7,99.9"/>
</svg>
