<svg version="1.1" id="screen" xmlns="http://www.w3.org/2000/svg" xmlns:xlink="http://www.w3.org/1999/xlink" x="0px" y="0px"
	 viewBox="0 0 200 200" style="enable-background:new 0 0 200 200;" xml:space="preserve">
<style type="text/css">
	.st0{fill:#3F3F3F;}
	.st1{fill:#1E1E1E;}
	.st2{fill:#E2DFB4;}
	.st3{fill:#FFFFFF;}
	.st4{fill:#37A084;}
</style>
<path class="st0" d="M109.7,137.9H99.3H89c0,0-0.3,10.5-7.1,14.9c0,0,5,3.2,17.5,2.8c12.5,0.4,17.5-2.8,17.5-2.8
	C110,148.4,109.7,137.9,109.7,137.9z"/>
<path class="st1" d="M13.2,135.3c-1.6-0.3-2.9-1.8-2.9-3.4V37.6c0-1.6,1.3-2.9,2.9-2.9h172.9c1.6,0,2.9,1.3,2.9,2.9v94.4
	c0,1.6-1.3,3.1-2.9,3.4c0,0-30,4.4-86.5,4.4C39.9,139.6,13.2,135.3,13.2,135.3z"/>
<circle class="st2" cx="99.6" cy="133.2" r="2.5"/>
<g>
	<g>
		<path class="st1" d="M99.6,134.4C99.6,134.4,99.6,134.4,99.6,134.4c-0.3,0-0.6-0.1-0.8-0.3c-0.2-0.2-0.3-0.4-0.3-0.7
			c0-0.3,0.2-0.6,0.5-0.8c0,0,0,0,0,0c0,0,0,0,0,0c-0.3,0.2-0.4,0.5-0.4,0.8c0,0.3,0.1,0.5,0.3,0.7
			C99.1,134.3,99.3,134.4,99.6,134.4c0.5,0,1-0.4,1-1c0-0.3-0.2-0.7-0.5-0.9c0,0,0,0,0,0c0,0,0,0,0,0c0.3,0.2,0.5,0.5,0.5,0.9
			C100.7,134,100.2,134.4,99.6,134.4z"/>
		<path class="st1" d="M99.6,134.5L99.6,134.5C99.6,134.5,99.6,134.5,99.6,134.5c-0.4,0-0.6-0.1-0.8-0.4c-0.2-0.2-0.3-0.5-0.3-0.8
			c0-0.4,0.2-0.7,0.5-0.9c0,0,0.1,0,0.1,0c0,0,0.1,0,0.1,0.1c0,0,0,0.1,0,0.1c0,0,0,0.1-0.1,0.1c-0.2,0.2-0.4,0.4-0.4,0.7
			c0,0.2,0.1,0.4,0.2,0.6c0.2,0.2,0.4,0.3,0.6,0.3c0.5,0,0.9-0.4,0.9-0.8c0-0.3-0.1-0.6-0.4-0.8c-0.1,0-0.1-0.1,0-0.2
			c0-0.1,0.1-0.1,0.2,0c0.3,0.2,0.6,0.6,0.5,1C100.8,134.1,100.3,134.5,99.6,134.5z"/>
	</g>
	<g>
		<path class="st1" d="M99.6,133.3C99.6,133.3,99.6,133.2,99.6,133.3l0-1.3c0,0,0,0,0,0s0,0,0,0L99.6,133.3
			C99.7,133.2,99.7,133.3,99.6,133.3z"/>
		<path class="st1" d="M99.6,133.4c-0.1,0-0.1-0.1-0.1-0.1V132c0-0.1,0.1-0.1,0.1-0.1c0.1,0,0.1,0.1,0.1,0.1v1.3
			C99.8,133.3,99.7,133.4,99.6,133.4z"/>
	</g>
</g>
<rect x="12.8" y="37.4" class="st3" width="173.6" height="91.4"/>
<path class="st1" d="M138.6,149.9H60.1c-1.6,0-2.9,1.3-2.9,2.9v0c0,1.6,1.3,2.9,2.9,2.9h78.4c1.6,0,2.9-1.3,2.9-2.9v0
	C141.5,151.2,140.2,149.9,138.6,149.9z"/>
<rect x="12.8" y="37.4" class="st4" width="173.6" height="91.4"/>
<rect x="12.8" y="37.3" class="st0" width="173.6" height="8.9"/>
<rect x="12.8" y="118.2" class="st0" width="173.6" height="10.7"/>
<path class="st3" d="M78.3,91.5c0,1.8,1.5,3.3,3.3,3.3c1.7,0,3.2-1.4,3.3-3.1h0v-8.5l0,0C84.9,77,79.8,72,73.6,72
	c-6.3,0-11.4,5.1-11.4,11.4c0,6.3,5.1,11.3,11.3,11.4l0,0c1.8,0,3.2-1.5,3.2-3.3c0-1.8-1.4-3.2-3.2-3.3l0,0c0,0,0,0,0,0
	c-2.7,0-4.8-2.2-4.8-4.8s2.2-4.8,4.8-4.8c2.6,0,4.8,2.1,4.8,4.8L78.3,91.5z M83.5,83.2"/>
<path class="st3" d="M95.1,66.2c0-1.8-1.5-3.3-3.3-3.3c-1.7,0-3.2,1.4-3.3,3.1h0v17.6l0,0c0.1,6.2,5.1,11.2,11.3,11.2
	c6.3,0,11.4-5.1,11.4-11.4c0-6.3-5.1-11.3-11.3-11.4l0,0c-1.8,0-3.2,1.5-3.2,3.3c0,1.8,1.4,3.2,3.2,3.3l0,0c0,0,0,0,0,0
	c2.7,0,4.8,2.2,4.8,4.8s-2.2,4.8-4.8,4.8c-2.6,0-4.8-2.1-4.8-4.8L95.1,66.2z M89.9,83.5"/>
<path class="st3" d="M121.3,83.4c0-2.6,2.2-4.8,4.8-4.8c2.7,0,4.8,2.2,4.8,4.8c0,2.7-2.2,4.8-4.8,4.8c0,0,0,0,0,0l0,0
	c-1.8,0-3.2,1.5-3.2,3.3c0,1.8,1.4,3.2,3.2,3.3l0,0c6.3,0,11.3-5.1,11.3-11.4c0-6.3-5.1-11.4-11.4-11.4c-6.2,0-11.3,5-11.3,11.2l0,0
	v17.6h0c0.1,1.7,1.6,3.1,3.3,3.1c1.8,0,3.3-1.5,3.3-3.3L121.3,83.4z M116.1,83.3"/>
</svg>
